<?xml version="1.0" encoding="UTF-8" standalone="no"?>
<svg xmlns="http://www.w3.org/2000/svg" xmlns:xlink="http://www.w3.org/1999/xlink" xmlns:serif="http://www.serif.com/" width="100%" height="100%" viewBox="0 0 1440 900" version="1.1" xml:space="preserve" style="fill-rule:evenodd;clip-rule:evenodd;stroke-linejoin:round;stroke-miterlimit:2;">
    <g transform="matrix(1.82524,0,0,1.82524,-594.175,-273.519)">
        <g transform="matrix(1.15206,-1.1524,0,1.04399,-49.5011,350.495)">
            <path d="M667.934,624.495L610.956,624.495L610.956,560.25L667.934,560.25L724.911,686.037L724.911,750.283L667.934,624.495Z" style="fill:rgb(64,64,64);"></path>
        </g>
        <g transform="matrix(1.15206,-1.1524,0,1.04399,-49.5011,350.495)">
            <rect x="325.532" y="560.25" width="54.615" height="64.246" style="fill:rgb(64,64,64);"></rect>
        </g>
        <g transform="matrix(1.15206,-1.1524,0,1.04399,-49.5011,350.495)">
            <rect x="394.552" y="560.25" width="57.835" height="64.246" style="fill:rgb(64,64,64);"></rect>
        </g>
        <g transform="matrix(1.15206,-1.1524,0,1.04399,-49.5011,350.495)">
            <rect x="466.793" y="560.25" width="129.759" height="64.246" style="fill:rgb(64,64,64);"></rect>
        </g>
        <g transform="matrix(1.15206,-1.1524,0,1.04399,-49.5011,350.495)">
            <path d="M955.72,1259.83L955.72,1195.59L1010.34,1316.16L1010.34,1380.41L955.72,1259.83Z" style="fill:rgb(64,64,64);"></path>
        </g>
        <g transform="matrix(1.15206,-1.1524,0,1.04399,-49.5011,350.495)">
            <path d="M941.315,1163.79L941.315,1228.03L883.48,1100.35L883.48,1036.1L941.315,1163.79Z" style="fill:rgb(64,64,64);"></path>
        </g>
        <g transform="matrix(1.15206,-1.1524,0,1.04399,-49.5011,350.495)">
            <path d="M869.075,1004.3L869.075,1068.55L739.316,782.084L739.316,717.839L869.075,1004.3Z" style="fill:rgb(64,64,64);"></path>
        </g>
        <g transform="matrix(1.34142,0,0,1.01973,-172.148,-11.4075)">
            <path d="M525.319,527.422L538.875,527.422C555.598,527.422 562.565,534.896 562.565,547.058C562.565,560.36 552.43,565.301 540.902,565.301L525.319,565.301L525.319,527.422ZM525.319,489.558L537.861,489.558C551.038,489.558 558.64,495.64 558.64,505.775C558.64,515.657 552.052,522.119 539.509,522.119L525.319,522.119L525.319,489.558ZM502.541,570.604L543.817,570.604C559.525,570.984 575.466,564.667 575.466,547.565C575.466,533.756 564.336,525.78 551.417,524.897L551.417,524.644C561.296,522.498 570.781,516.798 570.781,505.522C570.148,489.053 556.739,484.256 542.423,484.256L502.541,484.256L502.541,489.558L513.938,489.558L513.938,565.301L502.541,565.301L502.541,570.604Z" style="fill-rule:nonzero;"></path>
        </g>
        <g transform="matrix(1.34142,0,0,1.01973,-172.148,-11.4075)">
            <path d="M600.793,540.726C600.793,526.665 604.974,514.632 618.15,514.632C631.325,514.632 635.506,526.665 635.506,540.726C635.506,554.787 631.325,566.821 618.15,566.821C604.974,566.821 600.793,554.787 600.793,540.726ZM588.652,540.726C588.652,559.6 601.3,572.123 618.15,572.123C635,572.123 647.647,559.6 647.647,540.726C647.647,521.852 635,509.329 618.15,509.329C601.3,509.329 588.652,521.852 588.652,540.726Z" style="fill-rule:nonzero;"></path>
        </g>
        <g transform="matrix(1.34142,0,0,1.01973,-172.148,-11.4075)">
            <path d="M717.296,510.849L696.411,510.849L696.411,516.151L706.674,516.151L706.674,549.847C706.674,558.08 701.226,566.061 690.076,566.061C682.221,566.061 677.406,561.627 677.406,551.873L677.406,510.849L656.527,510.849L656.527,516.151L666.785,516.151L666.785,553.52C666.785,566.44 674.624,572.123 686.782,572.123C695.524,572.123 702.239,568.966 706.421,562.007L706.674,562.007L706.674,570.604L727.553,570.604L727.553,565.301L717.296,565.301L717.296,510.849Z" style="fill-rule:nonzero;"></path>
        </g>
        <g transform="matrix(1.34142,0,0,1.01973,-172.148,-11.4075)">
            <path d="M761.755,571.363L768.213,571.363L782.9,526.789L783.153,526.789L798.473,571.363L805.057,571.363L825.066,516.151L833.672,516.151L833.672,510.849L807.854,510.849L807.854,516.151L818.105,516.151L803.801,557.703L803.547,557.703L788.093,510.849L782.646,510.849L767.191,557.703L766.938,557.703L752.378,516.151L762.124,516.151L762.124,510.849L732.507,510.849L732.507,516.151L741.367,516.151L761.755,571.363Z" style="fill-rule:nonzero;"></path>
        </g>
        <g transform="matrix(1.27306,0,0,0.984374,-124.816,4.23118)">
            <path d="M500.839,280.167L521.046,280.167L521.046,385.648C521.046,405.173 512.963,416.17 498.144,416.17C482.652,416.17 477.264,402.031 477.264,388.565L457.097,391.707C457.097,412.131 472.11,425.566 497.022,425.566C522.39,425.566 541.212,414.824 541.212,386.321L541.212,280.167L561.407,280.167L561.407,270.771L500.839,270.771L500.839,280.167Z" style="fill:rgb(165,13,13);fill-rule:nonzero;"></path>
            <path d="M497.717,266.733L564.529,266.733L564.529,284.204L544.334,284.204L544.334,386.321C544.334,417.135 524.447,429.604 497.022,429.604C469.85,429.604 453.975,413.983 453.975,391.707L453.975,388.127L480.385,384.012L480.385,388.565C480.385,395.479 481.928,402.66 486.119,407.25C488.909,410.306 492.849,412.133 498.144,412.133C504.555,412.133 509.555,409.918 512.906,405.427C516.289,400.894 517.924,394.174 517.924,385.648L517.924,284.204L497.717,284.204L497.717,266.733ZM500.839,280.167L521.046,280.167L521.046,385.648C521.046,405.173 512.963,416.17 498.144,416.17C482.652,416.17 477.264,402.031 477.264,388.565L457.097,391.707C457.097,412.131 472.11,425.566 497.022,425.566C522.39,425.566 541.212,414.824 541.212,386.321L541.212,280.167L561.407,280.167L561.407,270.771L500.839,270.771L500.839,280.167Z" style="fill:white;"></path>
        </g>
        <g transform="matrix(1.27306,0,0,0.984374,-124.816,4.23118)">
            <path d="M575.795,423.771L636.356,423.771L636.356,414.375L616.156,414.375L616.156,347.257L708.18,347.257L708.18,414.375L687.98,414.375L687.98,423.771L748.541,423.771L748.541,414.375L728.347,414.375L728.347,280.167L748.541,280.167L748.541,270.771L687.98,270.771L687.98,280.167L708.18,280.167L708.18,337.861L616.156,337.861L616.156,280.167L636.356,280.167L636.356,270.771L575.795,270.771L575.795,280.167L595.989,280.167L595.989,414.375L575.795,414.375L575.795,423.771Z" style="fill:rgb(165,13,13);fill-rule:nonzero;"></path>
            <path d="M572.673,410.338L592.868,410.338L592.868,284.204L572.673,284.204L572.673,266.733L639.478,266.733L639.478,284.204L619.278,284.204C619.278,284.204 619.278,333.824 619.278,333.824L705.058,333.824L705.058,284.204L684.858,284.204L684.858,266.733L751.663,266.733L751.663,284.204L731.469,284.204L731.469,410.338L751.663,410.338L751.663,427.809L684.858,427.809L684.858,410.338C684.858,410.338 705.058,410.338 705.058,410.338C705.058,410.338 705.058,351.294 705.058,351.294C690.967,351.294 633.369,351.294 619.278,351.295L619.278,410.338L639.478,410.338L639.478,427.809L572.673,427.809L572.673,410.338ZM575.795,423.771L636.356,423.771L636.356,414.375L616.156,414.375L616.156,347.257L708.18,347.257L708.18,414.375L687.98,414.375L687.98,423.771L748.541,423.771L748.541,414.375L728.347,414.375L728.347,280.167L748.541,280.167L748.541,270.771L687.98,270.771L687.98,280.167L708.18,280.167L708.18,337.861L616.156,337.861L616.156,280.167L636.356,280.167L636.356,270.771L575.795,270.771L575.795,280.167L595.989,280.167L595.989,414.375L575.795,414.375L575.795,423.771Z" style="fill:white;"></path>
        </g>
        <g transform="matrix(1.27306,0,0,0.984374,-124.816,4.23118)">
            <path d="M762.929,423.771L823.494,423.771L823.494,414.375L803.29,414.375L803.29,347.257L860.984,347.257L860.984,366.113L873.073,366.113L873.073,320.126L860.984,320.126L860.984,337.861L803.29,337.861L803.29,284.206L872.428,284.206L872.428,301.492L884.516,301.492L884.516,270.771L762.929,270.771L762.929,280.167L783.124,280.167L783.124,414.375L762.929,414.375L762.929,423.771Z" style="fill:rgb(165,13,13);fill-rule:nonzero;"></path>
            <path d="M759.808,410.338L780.002,410.338L780.002,284.204L759.808,284.204L759.808,266.733L887.638,266.733L887.638,305.53L869.306,305.53L869.306,288.243L806.412,288.243C806.412,288.243 806.412,333.824 806.412,333.824L857.862,333.824L857.862,316.088L876.195,316.088L876.195,370.151L857.862,370.151L857.862,351.294C846.277,351.294 806.412,351.294 806.412,351.295L806.412,410.338L826.616,410.338L826.616,427.809L759.808,427.809L759.808,410.338ZM762.929,423.771L823.494,423.771L823.494,414.375L803.29,414.375L803.29,347.257L860.984,347.257L860.984,366.113L873.073,366.113L873.073,320.126L860.984,320.126L860.984,337.861L803.29,337.861L803.29,284.206L872.428,284.206L872.428,301.492L884.516,301.492L884.516,270.771L762.929,270.771L762.929,280.167L783.124,280.167L783.124,414.375L762.929,414.375L762.929,423.771Z" style="fill:white;"></path>
        </g>
    </g>
</svg>
